<svg id="Layer_1" xmlns="http://www.w3.org/2000/svg" viewBox="0 0 307 47"><style>.st0{fill:#366251}.st1{fill:#c6beb0}</style><path class="st0" d="M307 39v6.5h-17v-43h15.8V9h-8.3v11.5h7.4v6h-7.5V39h9.6zM268.5 2.4h8V39h9v6.5h-17V2.4zM263 33.2c0 9-4 12.3-11 12.3h-9.6v-43h9.7c7.7 0 9.7 4.4 9.7 11.7 0 5.4-2 8.2-5.3 8.4 3.7 0 6.6 3.7 6.6 10.6h-.1zM251.4 7.5H250V20h2c2 0 2.3-2 2.3-5.6 0-5-.6-7-3-7l.1.1zm.3 17.6H250v15.3h2c2.3 0 3-1.4 3-8 0-4.7-.7-7.2-3.3-7.2v-.1zm-25.4 21.2c-6.7 0-10.2-2.8-10.2-22.2 0-18.8 3-22 10.3-22 7.5 0 10.3 3.2 10.3 22 0 18.4-3 22.2-10.3 22.2h-.1zm2-36.2c-.3-3-1-3.7-2-3.7-1.2 0-1.8.6-2 3.7-.2 3-.2 7.3-.2 14 0 8 0 11 .3 13.8.2 3.3.8 3.6 2 3.6 1.3 0 1.7 0 2-3.6V10l-.1.1zm-29 19.5c-.7-2-1.2-4.4-1.8-7.4.4 5.8.4 7.4.4 12.5v11h-7.3v-43h7.2s3.2 12.7 4 15.3c.7 2.7 1.3 4.8 1.5 6.8-.2-4.3-.2-9.4-.2-13.7V2.4h7v43H204l-4.8-16 .1.2zM144 34.2c0 7-3 12-9.8 12-5.8 0-9.7-3-9.7-10.5 0-1.7 0-3.3.4-4.6h7c-.3 1.6-.5 2.6-.5 4.5 0 4.8 1.2 5.6 3 5.6 1.3 0 2.3-.7 2.3-5.5 0-4.2-3-7.3-6-11-3.2-3.6-6.5-8.4-6.5-12.4 0-6.4 3-10 9.2-10 6 0 9.3 3.2 9.3 9.5 0 1.4-.4 2.5-.6 3.5h-6.4l.2-3c0-4-.6-5.5-2.3-5.5-1.8 0-2 1.7-2 4.8 0 4 3 7 5.7 10.2 3.6 4.6 6.6 8.2 6.6 12.7l.1-.3zM103 2.5h16V9h-8.3v11.5h7.4v6h-7.3V39h9.5v6.5h-17v-43h-.3zm-18 27c-.6-2-1.2-4.4-1.7-7.4.4 5.8.4 7.4.4 12.5v11h-7.2v-43h7.2l4 15.3c.8 2.7 1.4 4.8 1.8 6.8-.2-4.3-.4-9.4-.4-13.7V2.4h7v43h-6.3l-4.7-16-.1.1zm-21.4-6c5 1.2 5.5 7 5.5 12.2 0 4 .3 7.7.8 9.8h-8c0-1.8-.5-2.5-.5-6.6v-5.4c0-3.5-1.2-6-3.7-6.7h-.4v18.5h-8v-43H61c5.3 0 9 3 9 11 0 6.6-3 9.5-6.4 10v.2zm-5-15.6h-1.4v12.3h2.3c2 0 2.6-1.3 2.6-5 0-6.5-1-7.4-3.5-7.3zM35.8 38.5h-5l-.6 7h-6.7l6.3-43.3h7.6l7.3 43.2h-8l-1-7 .1.1zm-1.4-13c-.2-2-1-8.3-1-12.4-.3 4.3-1 10.4-1 12.3l-1 8.3h4l-1-8.2zM20.6 33c0 9-4 12.3-11 12.3H0v-43h9.7c7.6 0 9.6 4.4 9.6 11.7 0 5.4-2 8.2-5.3 8.4 3.7 0 6.6 3.7 6.6 10.6zM9 7.5H7.5V20h2c2 0 2.3-2 2.3-5.6 0-5-.5-7-3-7l.2.1zM9.2 25H7.6v15.3h2c2.3 0 3-1.4 3-8 0-4.7-.7-7.2-3.3-7.2l-.1-.1z"/><path class="st1" d="M186.8 27.8c-.2 1.4-1 2.5-2.6 2.5-3.3 0-.7-5-3.8-5-1.8 0-3 1.6-5 5.8l-3 7.2.6 1.3c2 2.7 3.8 4.6 6 4.6 1.2 0 2.5-.6 4.5-2.6l1 1.4c-2.2 2.7-5 4.2-7.5 4.2-3 0-5.6-2.7-7.5-4.8-2.8 3-6 4.8-10.4 4.8-6.3 0-12-4-10.6-13 1.2-5.4 5.3-9 10-12-1.4-3.6-2.2-8-1.6-11.3C158 4 164.2 0 169.5 0c6.2 0 9 4.2 8 9-.5 2.5-1.6 4.8-4.2 7-2.7 2.4-7.2 4.5-9.7 6 1.6 4 4 8.5 7.4 14.3 1-2 2.5-5.6 4-8.5 1.3-3 3.4-4.8 6.5-4.8 4.3 0 5.5 3 5.3 4.8zm-33.5 7.5C152.7 39 155 44 161 44c3 0 5-.8 7-3.3-3.8-5.4-6.5-10.6-8.7-15.8-3 2.6-5.2 5.5-6 10.4zm18.5-21.7c1.3-1.7 1.7-3 2-4.4.7-3.6-1.4-6-4.5-6-4 0-7 3.3-7.2 6.4-.7 3.4-.3 6.7.8 10.2 2.4-1.4 7.4-4.5 9-6.2h-.1z"/></svg>